<svg xmlns="http://www.w3.org/2000/svg"><symbol id="tomskru" viewBox="0 0 101 25">
    <path fill-rule="evenodd" clip-rule="evenodd" d="M7.478 16.604H4.959a.838.838 0 0 1-.838-.821V4.03H.877A.878.878 0 0 1 0 3.173V1.121C0 .672.382.299.877.299h10.684c.457 0 .84.373.84.822v2.052c0 .447-.383.858-.84.858H8.319v11.752a.838.838 0 0 1-.84.821zM16.598 6.569a5.268 5.268 0 0 0-.344 1.902c0 .67.116 1.306.344 1.902.229.521.534 1.008.955 1.418.38.374.837.634 1.335.821.457.187.992.3 1.564.3.535 0 1.067-.113 1.565-.3a3.616 3.616 0 0 0 1.296-.821c.458-.41.763-.897.992-1.418a5.25 5.25 0 0 0 .343-1.902c0-.672-.114-1.306-.343-1.902-.229-.523-.534-1.008-.992-1.42a4.134 4.134 0 0 0-1.296-.783 4.485 4.485 0 0 0-1.565-.299c-.535 0-1.07.113-1.564.3a4.283 4.283 0 0 0-1.335.782 4.435 4.435 0 0 0-.955 1.42zM27.74 3.807c.838 1.342 1.258 2.947 1.258 4.664 0 1.716-.42 3.357-1.258 4.7-.841 1.307-2.023 2.352-3.625 3.022a7.782 7.782 0 0 1-1.793.561c-.611.15-1.26.186-1.87.186-.648 0-1.298-.037-1.908-.186a7.752 7.752 0 0 1-1.794-.56c-1.603-.67-2.785-1.716-3.625-3.022-.839-1.344-1.259-2.985-1.259-4.701 0-1.717.42-3.322 1.259-4.664.802-1.305 1.985-2.352 3.55-3.022a9.466 9.466 0 0 1 1.83-.597A11.389 11.389 0 0 1 20.452 0c.649 0 1.297.075 1.908.188a9.492 9.492 0 0 1 1.831.597c1.564.67 2.747 1.717 3.549 3.022zM30.907.224h.306a.88.88 0 0 1 .647.3l6.297 6.79L44.49.561c.191-.188.42-.337.687-.337h.267c.496 0 .878.374.878.858v14.7c0 .449-.382.822-.878.822H42.81a.838.838 0 0 1-.839-.821V9.329l-3.165 3.245c-.04 0-.04 0-.04.038a.9.9 0 0 1-1.22-.037L34.38 9.329v6.454a.838.838 0 0 1-.839.821h-2.633c-.496 0-.879-.373-.879-.821V1.082c0-.484.383-.858.878-.858zM48.535 11.605h2.518c.344 0 .648.186.8.521.23.486.84.822 1.604.972.534.148 1.145.148 1.717.074.534-.113 1.031-.26 1.336-.522.267-.225.457-.485.457-.86 0-.11-.038-.223-.076-.335h.038c-.038-.074-.075-.185-.152-.262-.19-.334-.611-.52-1.107-.633-.571-.15-1.221-.224-1.755-.26a12.203 12.203 0 0 1-2.48-.374c-.877-.263-1.717-.636-2.366-1.306-.458-.447-.763-1.008-.953-1.604a5.33 5.33 0 0 1-.27-1.718c-.036-1.565.612-2.796 1.605-3.693.61-.523 1.335-.895 2.136-1.193C52.35.15 53.189.039 54.029 0c2.022 0 4.083.635 5.342 2.016.305.337.534.671.724 1.044.193.411.306.783.382 1.195.04.075.04.149.04.186 0 .485-.383.857-.878.857h-2.405c-.343 0-.687-.185-.801-.52-.19-.448-.61-.747-1.145-.896a3.274 3.274 0 0 0-1.488-.113c-.458.074-.916.224-1.297.486a1.29 1.29 0 0 0-.61 1.008c0 .149 0 .334.037.447.04.149.078.26.192.372.19.262.535.447.915.56.498.15 1.03.225 1.487.26h.115c1.566.188 3.816.412 5.114 1.569.572.447.878 1.007 1.106 1.604.19.56.23 1.157.23 1.753 0 1.68-.764 2.91-1.908 3.732-1.335.97-3.168 1.417-4.809 1.417-1.068 0-2.212-.149-3.242-.56-.915-.373-1.795-.894-2.405-1.641-.305-.336-.495-.671-.686-1.008a6.248 6.248 0 0 1-.344-1.118c0-.075-.037-.113-.037-.187 0-.447.42-.858.877-.858z" fill="currentColor"/>
    <path fill-rule="evenodd" clip-rule="evenodd" d="M88.562.3h2.365c.456 0 .839.372.839.82v9.998c0 .599.268 1.047.65 1.383.495.41 1.22.597 1.907.597.725 0 1.412-.187 1.908-.597.38-.336.649-.784.649-1.383V1.121c0-.449.38-.822.838-.822h2.404c.498 0 .878.373.878.822v10.072c0 1.755-.764 3.098-1.907 4.069-1.26 1.044-3.015 1.604-4.77 1.604-1.755 0-3.472-.56-4.731-1.604-1.145-.97-1.908-2.314-1.908-4.069V1.121c0-.449.381-.822.878-.822zM77.764 3.172V1.121c0-.449.38-.822.838-.822h2.024c1.258 0 2.402.262 3.395.858.954.597 1.678 1.419 2.174 2.537.153.412.268.821.345 1.232.076.447.115.858.115 1.306-.039.337-.078.67-.115 1.007a4.756 4.756 0 0 1-.305.97 4.504 4.504 0 0 1-.841 1.493c-.344.447-.726.82-1.22 1.118v.039l2.784 4.44c.115.112.19.298.19.484 0 .484-.38.859-.876.859h-3.09a.843.843 0 0 1-.764-.449l-2.632-4.365h-1.184a.845.845 0 0 1-.838-.859V8.92c0-.487.38-.86.838-.86h2.024c.457 0 .837-.149 1.105-.41.23-.186.383-.41.497-.708.113-.298.19-.597.19-.933 0-.522-.152-1.082-.534-1.455a1.278 1.278 0 0 0-.534-.373 1.567 1.567 0 0 0-.724-.15h-1.947-.077a.844.844 0 0 1-.838-.857z" fill="#009BA7"/>
    <path fill-rule="evenodd" clip-rule="evenodd" d="M66.774 10.373v5.41c0 .448-.382.821-.877.821h-2.595c-.497 0-.879-.373-.879-.821V1.12c0-.449.382-.822.879-.822h2.595c.495 0 .877.373.877.822v5.334h.305c.688 0 1.336-.074 1.907-.26a2.712 2.712 0 0 0 1.335-1.007c.383-.486.575-1.12.688-1.792.114-.709.152-1.454.152-2.2 0 0-.038-.039-.038-.075 0-.449.42-.822.878-.822h2.67c.459 0 .84.373.84.822 0 1.455 0 2.835-.418 4.103-.421 1.38-1.222 2.575-2.786 3.545l4.083 6.493c.113.149.19.335.19.52 0 .449-.382.822-.878.822h-3.09c-.305 0-.61-.15-.764-.41l-3.433-5.895a6.56 6.56 0 0 1-.84.074h-.801z" fill="currentColor"/>
    <path fill-rule="evenodd" clip-rule="evenodd" d="M77.764 14.59v-1.456c0-.484 0-.633.533-.484a2.012 2.012 0 0 1 1.527 1.94 2.06 2.06 0 0 1-1.642 2.014c-.38.075-.418-.074-.418-.484v-1.53zM69.785 22.814v1.578c0 .472-.04.63-.564.472a2.127 2.127 0 0 1-1.614-2.05c0-1.027.727-1.896 1.736-2.13.403-.08.442.077.442.512v1.618z" fill="#009BA7"/>
    <path d="M72.395 24.922h1.175l2.02-4.002v-.16h-1.18l-.73 1.534h-.03l-.804-1.534H71.63v.16l1.436 2.546-.67 1.344v.113zm4.596-3.11c0-.155.14-.244.377-.244.511 0 .524.72-.012.72h-.285v.868h.297c.73 0 .73.946 0 .946-.316 0-.536-.208-.536-.535h-.955c0 .934.566 1.433 1.491 1.433 1.096 0 1.643-.57 1.643-1.308 0-.47-.182-.804-.614-1.029.25-.184.37-.5.37-.77 0-.604-.468-1.205-1.399-1.205-.742 0-1.38.356-1.345 1.125h.968zm6.378-1.052h-1.113v1.51H80.94v-1.51h-1.113v4.162h1.113v-1.67h1.316v1.67h1.113V20.76zm3.798 4.162h1.065v-.153l-1.924-4.063h-.468l-1.917 4.063v.154h1.065l.25-.524h1.68l.249.523zm-.603-1.433h-.973l.48-1.094.493 1.094zm5.375-1.451c0-.72-.59-1.278-1.327-1.278h-1.82v4.162h1.995c.871 0 1.322-.588 1.328-1.314 0-.368-.164-.677-.511-.85a.986.986 0 0 0 .335-.72zm-1.23 1.232c.438 0 .444.707.005.707h-.87v-.707h.864zm-.182-1.56c.437 0 .437.673.006.673h-.688v-.672h.682zm5.148 3.212h1.065v-.153l-1.923-4.063h-.469l-1.917 4.063v.154h1.065l.25-.524h1.68l.249.523zm-.603-1.433H94.1l.48-1.094.493 1.094zm2.653 1.433h-.389V20.76h1.115v2.036l2.154-2.055H101v4.181h-1.125v-2.046l-2.15 2.046zm1.169-5.465c-.213.011-.419.035-.626.06.018.666.401 1.016 1.058 1.016.676 0 1.042-.35 1.066-1.016-.207-.025-.413-.049-.627-.06-.037.25-.201.327-.451.327-.256 0-.401-.107-.42-.327z" fill="currentColor"/>
</symbol></svg>