<svg width="101" height="25" viewBox="0 0 101 25" fill="none" xmlns="http://www.w3.org/2000/svg">
<path fill-rule="evenodd" clip-rule="evenodd" d="M7.47791 16.6041H4.95933C4.50231 16.6041 4.12063 16.2309 4.12063 15.7826V4.03078H0.876993C0.381677 4.03078 0 3.62007 0 3.17301V1.12067C0 0.672408 0.381677 0.299255 0.876993 0.299255H11.5615C12.0185 0.299255 12.4014 0.672408 12.4014 1.12067V3.17301C12.4014 3.62007 12.0185 4.03078 11.5615 4.03078H8.31784V15.7826C8.31784 16.2309 7.93617 16.6041 7.47791 16.6041Z" fill="white"/>
<path fill-rule="evenodd" clip-rule="evenodd" d="M16.5983 6.56893C16.3698 7.16501 16.2536 7.79864 16.2536 8.47104C16.2536 9.14102 16.3698 9.77707 16.5983 10.3731C16.8268 10.8941 17.1319 11.3811 17.5531 11.7906C17.9335 12.165 18.3905 12.4255 18.8883 12.6121C19.3454 12.7986 19.8802 12.9113 20.4521 12.9113C20.9869 12.9113 21.5193 12.7986 22.0171 12.6121C22.5124 12.4255 22.9311 12.165 23.3128 11.7906C23.7711 11.3811 24.0762 10.8941 24.3047 10.3731C24.5344 9.77707 24.6481 9.14102 24.6481 8.47104C24.6481 7.79864 24.5344 7.16501 24.3047 6.56893C24.0762 6.04555 23.7711 5.56094 23.3128 5.14902C22.9311 4.81342 22.5124 4.55294 22.0171 4.36637C21.5193 4.17979 20.9869 4.06712 20.4521 4.06712C19.9173 4.06712 19.3824 4.17979 18.8883 4.36637C18.3905 4.55294 17.9335 4.81342 17.5531 5.14902C17.1319 5.56094 16.8268 6.04555 16.5983 6.56893ZM27.7398 3.80664C28.5785 5.14902 28.9984 6.7543 28.9984 8.47104C28.9984 10.1866 28.5785 11.8282 27.7398 13.1718C26.8986 14.4778 25.7165 15.5234 24.1145 16.1934C23.5413 16.4538 22.9311 16.6416 22.3222 16.7543C21.7108 16.9033 21.0623 16.9397 20.4521 16.9397C19.8036 16.9397 19.1539 16.9033 18.5437 16.7543C17.9335 16.6416 17.3221 16.4538 16.7502 16.1934C15.1469 15.5234 13.9648 14.4778 13.1249 13.1718C12.2862 11.8282 11.8662 10.1866 11.8662 8.47104C11.8662 6.7543 12.2862 5.14902 13.1249 3.80664C13.9265 2.50182 15.1098 1.45505 16.6748 0.785074C17.2467 0.523382 17.8569 0.336806 18.5054 0.187788C19.1539 0.0751151 19.8036 0 20.4521 0C21.1006 0 21.7491 0.0751151 22.3605 0.187788C23.009 0.336806 23.6179 0.523382 24.191 0.785074C25.7548 1.45505 26.9381 2.50182 27.7398 3.80664Z" fill="white"/>
<path fill-rule="evenodd" clip-rule="evenodd" d="M30.9075 0.224091H31.2126C31.4411 0.224091 31.7079 0.336763 31.8599 0.523339L38.1569 7.31398L44.491 0.560897C44.6825 0.373109 44.911 0.224091 45.1778 0.224091H45.4446C45.9412 0.224091 46.3228 0.598454 46.3228 1.08186V15.7826C46.3228 16.2309 45.9412 16.604 45.4446 16.604H42.8112C42.3541 16.604 41.9725 16.2309 41.9725 15.7826V9.32876L38.8066 12.5745C38.7671 12.5745 38.7671 12.5745 38.7671 12.612C38.4237 12.9113 37.8889 12.9113 37.5467 12.5745L34.3797 9.32876V15.7826C34.3797 16.2309 33.998 16.604 33.541 16.604H30.9075C30.4122 16.604 30.0293 16.2309 30.0293 15.7826V1.08186C30.0293 0.598454 30.4122 0.224091 30.9075 0.224091Z" fill="white"/>
<path fill-rule="evenodd" clip-rule="evenodd" d="M48.5347 11.6053H51.0533C51.3967 11.6053 51.7005 11.7906 51.8537 12.1262C52.0834 12.6121 52.6936 12.9477 53.457 13.0979C53.9906 13.2457 54.602 13.2457 55.1739 13.1718C55.7075 13.0591 56.2053 12.9113 56.5104 12.6496C56.7772 12.4255 56.9674 12.165 56.9674 11.7906C56.9674 11.6792 56.9291 11.5665 56.8908 11.455H56.9291C56.8908 11.3811 56.8538 11.2697 56.7772 11.1934C56.587 10.859 56.1658 10.6724 55.6705 10.5597C55.0986 10.4107 54.4489 10.3356 53.9152 10.2992C53.1519 10.2617 52.2737 10.149 51.435 9.92609C50.558 9.66319 49.718 9.29004 49.0695 8.62006C48.6113 8.173 48.3062 7.61206 48.116 7.01599C47.9233 6.45505 47.8467 5.85897 47.8467 5.29804C47.8096 3.73273 48.4581 2.50182 49.4512 1.60528C50.0614 1.0819 50.7865 0.709959 51.5869 0.411921C52.3515 0.15023 53.1889 0.0387691 54.0289 0C56.0509 0 58.1125 0.634843 59.3711 2.01599C59.6762 2.3528 59.9047 2.68718 60.095 3.06033C60.2876 3.47104 60.4013 3.84298 60.4766 4.25491C60.5162 4.33002 60.5162 4.40392 60.5162 4.44148C60.5162 4.92609 60.1345 5.29804 59.6392 5.29804H57.2342C56.8908 5.29804 56.5475 5.11267 56.4326 4.77708C56.2436 4.33002 55.8224 4.03077 55.2876 3.88175C54.8305 3.73273 54.334 3.69397 53.8004 3.76908C53.3421 3.84298 52.8839 3.99321 52.5034 4.25491C52.16 4.47783 51.9303 4.81342 51.8932 5.2629C51.8932 5.41192 51.8932 5.59728 51.9303 5.70996C51.9698 5.85897 52.0081 5.97044 52.1217 6.0819C52.312 6.34359 52.6566 6.52895 53.037 6.64284C53.5348 6.79186 54.0672 6.86697 54.5242 6.90211H54.6391C56.2053 7.08989 58.4546 7.31403 59.7528 8.47104C60.3247 8.9181 60.631 9.47783 60.8595 10.0751C61.0498 10.6348 61.0881 11.2321 61.0881 11.8282C61.0881 13.5074 60.3247 14.7383 59.1809 15.5597C57.8457 16.5302 56.0126 16.9772 54.3723 16.9772C53.3038 16.9772 52.16 16.8282 51.1299 16.4175C50.2146 16.0443 49.3351 15.5234 48.7249 14.7759C48.4198 14.4403 48.2296 14.1047 48.0394 13.7679C47.8862 13.3947 47.7714 13.0228 47.6948 12.6496C47.6948 12.5745 47.6577 12.5369 47.6577 12.463C47.6577 12.016 48.0777 11.6053 48.5347 11.6053Z" fill="white"/>
<path fill-rule="evenodd" clip-rule="evenodd" d="M88.5618 0.299255H90.9272C91.383 0.299255 91.7659 0.672408 91.7659 1.12067V11.1182C91.7659 11.7167 92.0339 12.165 92.4156 12.5006C92.9109 12.9113 93.636 13.0979 94.3228 13.0979C95.0478 13.0979 95.7346 12.9113 96.2312 12.5006C96.6116 12.165 96.8796 11.7167 96.8796 11.1182V1.12067C96.8796 0.672408 97.2601 0.299255 97.7183 0.299255H100.122C100.62 0.299255 101 0.672408 101 1.12067V11.1934C101 12.9477 100.236 14.2913 99.0931 15.2617C97.8332 16.306 96.078 16.8658 94.3228 16.8658C92.5676 16.8658 90.8506 16.306 89.592 15.2617C88.4469 14.2913 87.6836 12.9477 87.6836 11.1934V1.12067C87.6836 0.672408 88.0652 0.299255 88.5618 0.299255ZM77.7637 3.17301V1.12067C77.7637 0.672408 78.1441 0.299255 78.6024 0.299255H80.6256C81.8843 0.299255 83.0281 0.560947 84.0212 1.15702C84.9748 1.75431 85.6986 2.57573 86.1952 3.69397C86.3483 4.10589 86.4632 4.51539 86.5398 4.9261C86.6164 5.37316 86.6546 5.78387 86.6546 6.23213C86.6164 6.56894 86.5768 6.90211 86.5398 7.23892C86.4632 7.57451 86.3866 7.87497 86.2347 8.20814C86.042 8.76908 85.774 9.25491 85.3935 9.70196C85.0501 10.149 84.6684 10.5222 84.1731 10.8202V10.859L86.9585 15.2992C87.0734 15.4107 87.1487 15.5973 87.1487 15.7826C87.1487 16.2673 86.7683 16.6416 86.2717 16.6416H83.1813C82.8762 16.6416 82.5698 16.4914 82.4179 16.1934L79.7857 11.8282H78.6024C78.1441 11.8282 77.7637 11.4551 77.7637 10.9692V8.9181C77.7637 8.43228 78.1441 8.05912 78.6024 8.05912H80.6256C81.0827 8.05912 81.4631 7.91011 81.7311 7.64963C81.9609 7.46305 82.114 7.23892 82.2277 6.94088C82.3413 6.64284 82.4179 6.34359 82.4179 6.008C82.4179 5.48583 82.266 4.9261 81.8843 4.55295C81.7311 4.36637 81.5397 4.25491 81.3495 4.1798C81.1209 4.06712 80.8912 4.03078 80.6256 4.03078C80.281 4.03078 79.9759 4.03078 79.6325 4.03078C79.3274 4.03078 79.0223 4.03078 78.679 4.03078C78.679 4.03078 78.6407 4.03078 78.6024 4.03078C78.1441 4.03078 77.7637 3.65884 77.7637 3.17301Z" fill="#009BA7"/>
<path fill-rule="evenodd" clip-rule="evenodd" d="M66.7737 10.3732V15.7826C66.7737 16.2309 66.392 16.6041 65.8967 16.6041H63.3016C62.805 16.6041 62.4233 16.2309 62.4233 15.7826V1.12067C62.4233 0.672408 62.805 0.299255 63.3016 0.299255H65.8967C66.392 0.299255 66.7737 0.672408 66.7737 1.12067V6.45506H67.0788C67.7668 6.45506 68.4153 6.38115 68.986 6.19458C69.5208 6.008 69.9778 5.67119 70.3212 5.18779C70.7041 4.70197 70.8956 4.06712 71.0092 3.39593C71.1229 2.68719 71.1612 1.94209 71.1612 1.19579C71.1612 1.19579 71.1229 1.15702 71.1229 1.12067C71.1229 0.672408 71.5428 0.299255 72.0011 0.299255H74.6716C75.1299 0.299255 75.5115 0.672408 75.5115 1.12067C75.5115 2.57573 75.5115 3.95566 75.0928 5.22414C74.6716 6.60407 73.8712 7.79865 72.3074 8.76908L76.3898 15.2617C76.5034 15.4107 76.58 15.5973 76.58 15.7826C76.58 16.2309 76.1983 16.6041 75.7017 16.6041H72.6113C72.3074 16.6041 72.0011 16.4538 71.8479 16.1934L68.4153 10.2993C68.1473 10.3356 67.8434 10.3732 67.5754 10.3732C67.232 10.3732 67.0022 10.3732 66.7737 10.3732Z" fill="white"/>
<path fill-rule="evenodd" clip-rule="evenodd" d="M77.7637 14.5895V13.1344C77.7637 12.6498 77.7637 12.5008 78.2973 12.6498C79.1755 12.874 79.824 13.6566 79.824 14.5895C79.824 15.5975 79.1002 16.4177 78.1824 16.6043C77.802 16.6794 77.7637 16.5304 77.7637 16.1197V14.5895Z" fill="#009BA7"/>
<path fill-rule="evenodd" clip-rule="evenodd" d="M69.7851 22.8144V24.3918C69.7851 24.8643 69.7456 25.0218 69.2206 24.8643C68.293 24.6281 67.6074 23.7982 67.6074 22.8144C67.6074 21.787 68.3337 20.9184 69.3429 20.6833C69.7456 20.6034 69.7851 20.7609 69.7851 21.1958V22.8144Z" fill="#009BA7"/>
<path d="M72.3952 24.9225H73.5699L75.5907 20.9196V20.7597H74.4098L73.6798 22.2935H73.6502L72.8461 20.7597H71.6294V20.9196L73.0647 23.4662L72.3952 24.8098V24.9225ZM76.9914 21.8125C76.9914 21.6574 77.131 21.5678 77.3681 21.5678C77.8795 21.5678 77.8919 22.2874 77.3558 22.2874H77.0705V23.1561H77.3681C78.0981 23.1561 78.0981 24.1023 77.3681 24.1023C77.0519 24.1023 76.8321 23.8939 76.8321 23.5668H75.8773C75.8773 24.5009 76.443 25 77.3681 25C78.4638 25 79.011 24.4294 79.011 23.6916C79.011 23.2215 78.8294 22.8883 78.3971 22.663C78.6466 22.4788 78.7676 22.1638 78.7676 21.8925C78.7676 21.2891 78.2995 20.6882 77.3681 20.6882C76.6258 20.6882 75.9872 21.0444 76.023 21.8125H76.9914ZM83.3687 20.7597C82.9982 20.7597 82.6264 20.7597 82.2558 20.7597V22.2705H80.9403V20.7597C80.5698 20.7597 80.1918 20.7597 79.8274 20.7597V24.9225C80.1918 24.9225 80.5698 24.9225 80.9403 24.9225V23.2518H82.2558V24.9225C82.6264 24.9225 82.9982 24.9225 83.3687 24.9225V20.7597ZM87.167 24.9225H88.2317V24.7686L86.3085 20.7064H85.8404L83.9233 24.7686V24.9225H84.9881L85.2376 24.3991H86.9175L87.167 24.9225ZM86.5642 23.4893H85.5909L86.0714 22.3952L86.5642 23.4893ZM91.9386 22.0378C91.9386 21.3182 91.3481 20.7597 90.612 20.7597H88.7913V24.9225H90.7874C91.6582 24.9225 92.109 24.3337 92.1152 23.608C92.1152 23.2397 91.9509 22.9307 91.6038 22.7575C91.8101 22.5915 91.9386 22.2874 91.9386 22.0378ZM90.7083 23.27C91.1468 23.27 91.153 23.9775 90.7145 23.9775H89.8449V23.27H90.7083ZM90.5267 21.7107C90.964 21.7107 90.964 22.3831 90.5329 22.3831H89.8449V21.7107H90.5267ZM95.675 24.9225H96.7398V24.7686L94.8166 20.7064H94.3484L92.4314 24.7686V24.9225H93.4962L93.7457 24.3991H95.4255L95.675 24.9225ZM95.0723 23.4893H94.0989L94.5794 22.3952L95.0723 23.4893ZM97.7255 24.9225H97.3364V20.7597C97.7082 20.7597 98.0787 20.7597 98.4505 20.7597V22.7963L100.605 20.7415H101V24.9225C100.629 24.9225 100.251 24.9225 99.8747 24.9225V22.8762L97.7255 24.9225ZM98.894 19.4573C98.6815 19.4682 98.4752 19.4924 98.2677 19.5166C98.2863 20.183 98.6692 20.5331 99.3263 20.5331C100.002 20.5331 100.368 20.183 100.392 19.5166C100.185 19.4924 99.9785 19.4682 99.7648 19.4573C99.7277 19.7069 99.5635 19.7844 99.3139 19.7844C99.0583 19.7844 98.9125 19.6766 98.894 19.4573Z" fill="white"/>
</svg>
